<svg width="35" height="35" viewBox="0 0 35 35" fill="none" xmlns="http://www.w3.org/2000/svg">
<path d="M2.9165 4.375H11.6665C13.2136 4.375 14.6973 4.98958 15.7913 6.08354C16.8853 7.17751 17.4998 8.66124 17.4998 10.2083V30.625C17.4998 29.4647 17.0389 28.3519 16.2184 27.5314C15.398 26.7109 14.2852 26.25 13.1248 26.25H2.9165V4.375Z" stroke="white" stroke-width="2" stroke-linecap="round" stroke-linejoin="round"/>
<path d="M32.0833 4.375H23.3333C21.7862 4.375 20.3025 4.98958 19.2085 6.08354C18.1146 7.17751 17.5 8.66124 17.5 10.2083V30.625C17.5 29.4647 17.9609 28.3519 18.7814 27.5314C19.6019 26.7109 20.7147 26.25 21.875 26.25H32.0833V4.375Z" stroke="white" stroke-width="2" stroke-linecap="round" stroke-linejoin="round"/>
</svg>
