<svg width="273" height="1024" viewBox="0 0 273 1024" fill="none" xmlns="http://www.w3.org/2000/svg">
<mask id="path-1-inside-1_43_606" fill="white">
<path d="M0 0H273V1024H0V0Z"/>
</mask>
<path d="M0 0H273V1024H0V0Z" fill="white"/>
<path d="M121.091 44.6222V53.5111L137 62L152.909 53.5111V44.6222L137 53.1111L121.091 44.6222ZM137 22L112 35.3333L137 48.6667L157.455 37.7556V53.1111H162V35.3333L137 22Z" fill="#006E90"/>
<path d="M51.1187 94.7549C51.1187 94.4404 51.07 94.1597 50.9727 93.9126C50.8828 93.658 50.7144 93.4297 50.4673 93.2275C50.2277 93.0179 49.887 92.8158 49.4453 92.6211C49.0111 92.4189 48.4495 92.2093 47.7607 91.9922C46.9971 91.7526 46.2858 91.4831 45.627 91.1836C44.9681 90.8841 44.3879 90.536 43.8862 90.1392C43.3921 89.7424 43.0065 89.2856 42.7295 88.769C42.4525 88.245 42.314 87.6385 42.314 86.9497C42.314 86.2759 42.4562 85.6619 42.7407 85.1079C43.0327 84.5539 43.4445 84.0785 43.9761 83.6816C44.5076 83.2773 45.1328 82.9666 45.8516 82.7495C46.5778 82.5324 47.3789 82.4238 48.2549 82.4238C49.4678 82.4238 50.516 82.6447 51.3994 83.0864C52.2904 83.5282 52.9792 84.1271 53.4658 84.8833C53.9525 85.6395 54.1958 86.4893 54.1958 87.4326H51.1187C51.1187 86.9235 51.0101 86.4743 50.793 86.085C50.5833 85.6956 50.2614 85.3887 49.8271 85.1641C49.4004 84.9395 48.8613 84.8271 48.21 84.8271C47.5811 84.8271 47.057 84.9207 46.6377 85.1079C46.2259 85.2951 45.9152 85.5496 45.7056 85.8716C45.5034 86.1935 45.4023 86.5529 45.4023 86.9497C45.4023 87.2492 45.4735 87.5187 45.6157 87.7583C45.758 87.9904 45.9714 88.2113 46.2559 88.4209C46.5404 88.623 46.8923 88.814 47.3115 88.9937C47.7383 89.1659 48.2324 89.3381 48.7939 89.5103C49.6924 89.7798 50.4785 90.0793 51.1523 90.4087C51.8337 90.7381 52.3989 91.1125 52.8481 91.5317C53.3049 91.951 53.6455 92.4227 53.8701 92.9468C54.1022 93.4709 54.2183 94.0661 54.2183 94.7324C54.2183 95.4362 54.0798 96.0651 53.8027 96.6191C53.5257 97.1732 53.1289 97.6449 52.6123 98.0342C52.0957 98.4235 51.4743 98.7192 50.748 98.9214C50.0293 99.1235 49.2244 99.2246 48.3335 99.2246C47.5399 99.2246 46.7537 99.1198 45.9751 98.9102C45.2039 98.693 44.5039 98.3711 43.875 97.9443C43.2461 97.5101 42.7445 96.9635 42.3701 96.3047C41.9958 95.6383 41.8086 94.8597 41.8086 93.9688H44.9082C44.9082 94.4854 44.9906 94.9271 45.1553 95.2939C45.3275 95.6533 45.5671 95.9491 45.874 96.1812C46.1885 96.4058 46.5553 96.5705 46.9746 96.6753C47.3939 96.7801 47.8468 96.8325 48.3335 96.8325C48.9624 96.8325 49.479 96.7464 49.8833 96.5742C50.2951 96.3945 50.6021 96.1475 50.8042 95.833C51.0138 95.5186 51.1187 95.1592 51.1187 94.7549ZM63.6182 82.6484V99H60.541V82.6484H63.6182ZM68.6943 82.6484V85.0854H55.521V82.6484H68.6943ZM79.8462 82.6484H82.9346V93.5083C82.9346 94.7586 82.665 95.8105 82.126 96.6641C81.5869 97.5101 80.8532 98.1502 79.9248 98.5845C78.9964 99.0112 77.9408 99.2246 76.7578 99.2246C75.5599 99.2246 74.493 99.0112 73.5571 98.5845C72.6213 98.1502 71.8875 97.5101 71.356 96.6641C70.8244 95.8105 70.5586 94.7586 70.5586 93.5083V82.6484H73.647V93.5083C73.647 94.272 73.7743 94.8971 74.0288 95.3838C74.2834 95.863 74.6427 96.2186 75.1069 96.4507C75.5711 96.6828 76.1214 96.7988 76.7578 96.7988C77.4017 96.7988 77.952 96.6828 78.4087 96.4507C78.8729 96.2186 79.2285 95.863 79.4756 95.3838C79.7227 94.8971 79.8462 94.272 79.8462 93.5083V82.6484ZM90.751 99H87.2246L87.2471 96.5742H90.751C91.7018 96.5742 92.4992 96.3646 93.1431 95.9453C93.7869 95.5186 94.2736 94.9084 94.603 94.1147C94.9325 93.3136 95.0972 92.3553 95.0972 91.2397V90.3975C95.0972 89.5365 95.0036 88.7765 94.8164 88.1177C94.6292 87.4588 94.3522 86.9048 93.9854 86.4556C93.626 86.0063 93.1805 85.6657 92.6489 85.4336C92.1174 85.2015 91.5072 85.0854 90.8184 85.0854H87.1572V82.6484H90.8184C91.9115 82.6484 92.9072 82.8319 93.8057 83.1987C94.7116 83.5656 95.494 84.0934 96.1528 84.7822C96.8192 85.4635 97.3283 86.2796 97.6802 87.2305C98.0396 88.1813 98.2192 89.2445 98.2192 90.4199V91.2397C98.2192 92.4077 98.0396 93.4709 97.6802 94.4292C97.3283 95.38 96.8192 96.1961 96.1528 96.8774C95.494 97.5588 94.7078 98.0828 93.7944 98.4497C92.881 98.8166 91.8665 99 90.751 99ZM88.9541 82.6484V99H85.8657V82.6484H88.9541ZM111.685 96.5742V99H102.992V96.5742H111.685ZM103.936 82.6484V99H100.847V82.6484H103.936ZM110.55 89.3979V91.7676H102.992V89.3979H110.55ZM111.651 82.6484V85.0854H102.992V82.6484H111.651ZM126.969 82.6484V99H123.87L116.918 87.6572V99H113.83V82.6484H116.918L123.892 94.0024V82.6484H126.969ZM136.796 82.6484V99H133.719V82.6484H136.796ZM141.872 82.6484V85.0854H128.699V82.6484H141.872ZM155.382 93.0366H151.171V90.6108H155.382C156.071 90.6108 156.629 90.4985 157.056 90.2739C157.49 90.0418 157.808 89.7274 158.01 89.3306C158.212 88.9263 158.313 88.4658 158.313 87.9492C158.313 87.4476 158.212 86.9797 158.01 86.5454C157.808 86.1112 157.49 85.7593 157.056 85.4897C156.629 85.2202 156.071 85.0854 155.382 85.0854H152.182V99H149.093V82.6484H155.382C156.655 82.6484 157.741 82.8768 158.639 83.3335C159.545 83.7827 160.234 84.4079 160.706 85.209C161.185 86.0026 161.424 86.9085 161.424 87.9268C161.424 88.9824 161.185 89.8921 160.706 90.6558C160.234 91.4194 159.545 92.0072 158.639 92.4189C157.741 92.8307 156.655 93.0366 155.382 93.0366ZM177.091 90.4087V91.251C177.091 92.4863 176.926 93.5981 176.597 94.5864C176.267 95.5672 175.799 96.402 175.193 97.0908C174.586 97.7796 173.864 98.3075 173.025 98.6743C172.187 99.0412 171.255 99.2246 170.229 99.2246C169.218 99.2246 168.29 99.0412 167.444 98.6743C166.605 98.3075 165.879 97.7796 165.265 97.0908C164.651 96.402 164.176 95.5672 163.839 94.5864C163.502 93.5981 163.333 92.4863 163.333 91.251V90.4087C163.333 89.1659 163.502 88.054 163.839 87.0732C164.176 86.0924 164.647 85.2576 165.254 84.5688C165.86 83.8726 166.583 83.341 167.421 82.9741C168.267 82.6073 169.196 82.4238 170.207 82.4238C171.232 82.4238 172.164 82.6073 173.003 82.9741C173.841 83.341 174.564 83.8726 175.17 84.5688C175.784 85.2576 176.256 86.0924 176.585 87.0732C176.922 88.054 177.091 89.1659 177.091 90.4087ZM173.969 91.251V90.3862C173.969 89.4953 173.886 88.7129 173.722 88.0391C173.557 87.3577 173.314 86.785 172.992 86.3208C172.67 85.8566 172.273 85.5085 171.801 85.2764C171.33 85.0368 170.798 84.917 170.207 84.917C169.608 84.917 169.076 85.0368 168.612 85.2764C168.155 85.5085 167.766 85.8566 167.444 86.3208C167.122 86.785 166.875 87.3577 166.703 88.0391C166.538 88.7129 166.456 89.4953 166.456 90.3862V91.251C166.456 92.1344 166.538 92.9168 166.703 93.5981C166.875 94.2795 167.122 94.856 167.444 95.3276C167.773 95.7918 168.17 96.1437 168.634 96.3833C169.098 96.6229 169.63 96.7427 170.229 96.7427C170.828 96.7427 171.36 96.6229 171.824 96.3833C172.288 96.1437 172.677 95.7918 172.992 95.3276C173.314 94.856 173.557 94.2795 173.722 93.5981C173.886 92.9168 173.969 92.1344 173.969 91.251ZM179.708 82.6484H185.648C186.891 82.6484 187.958 82.8356 188.849 83.21C189.74 83.5843 190.425 84.1383 190.904 84.8721C191.383 85.6058 191.623 86.508 191.623 87.5786C191.623 88.4246 191.473 89.1584 191.174 89.7798C190.874 90.4012 190.451 90.9215 189.905 91.3408C189.366 91.7601 188.729 92.0895 187.996 92.3291L187.03 92.8232H181.785L181.763 90.3862H185.682C186.319 90.3862 186.846 90.2739 187.266 90.0493C187.685 89.8247 187.999 89.514 188.209 89.1172C188.426 88.7204 188.535 88.2674 188.535 87.7583C188.535 87.2118 188.43 86.7401 188.22 86.3433C188.011 85.939 187.692 85.6283 187.266 85.4111C186.839 85.194 186.3 85.0854 185.648 85.0854H182.796V99H179.708V82.6484ZM188.939 99L185.154 91.6777L188.422 91.6665L192.252 98.8428V99H188.939ZM200.63 82.6484V99H197.553V82.6484H200.63ZM205.706 82.6484V85.0854H192.533V82.6484H205.706ZM213.118 85.1304L208.458 99H205.189L211.299 82.6484H213.388L213.118 85.1304ZM217.015 99L212.332 85.1304L212.051 82.6484H214.151L220.294 99H217.015ZM216.802 92.9243V95.3613H208.031V92.9243H216.802ZM232.356 96.5742V99H224.135V96.5742H232.356ZM225.067 82.6484V99H221.979V82.6484H225.067Z" fill="#006E90"/>
<path d="M88.5762 221H85.5391L85.5586 219.057H88.5762C89.4551 219.057 90.1908 218.865 90.7832 218.48C91.3822 218.096 91.8314 217.546 92.1309 216.83C92.4368 216.114 92.5898 215.261 92.5898 214.271V213.5C92.5898 212.732 92.502 212.051 92.3262 211.459C92.1569 210.867 91.903 210.368 91.5645 209.965C91.2324 209.561 90.8223 209.255 90.334 209.047C89.8522 208.839 89.2956 208.734 88.6641 208.734H85.4805V206.781H88.6641C89.6081 206.781 90.4707 206.941 91.252 207.26C92.0332 207.572 92.707 208.025 93.2734 208.617C93.8464 209.21 94.2858 209.919 94.5918 210.746C94.8978 211.573 95.0508 212.497 95.0508 213.52V214.271C95.0508 215.294 94.8978 216.218 94.5918 217.045C94.2858 217.872 93.8464 218.581 93.2734 219.174C92.7005 219.76 92.0169 220.212 91.2227 220.531C90.4349 220.844 89.5527 221 88.5762 221ZM86.8965 206.781V221H84.4453V206.781H86.8965ZM102.834 208.676L98.5859 221H96.0176L101.369 206.781H103.01L102.834 208.676ZM106.389 221L102.131 208.676L101.945 206.781H103.596L108.967 221H106.389ZM106.184 215.727V217.67H98.4492V215.727H106.184ZM118.039 217.338C118.039 217.045 117.993 216.785 117.902 216.557C117.818 216.329 117.665 216.12 117.443 215.932C117.222 215.743 116.91 215.561 116.506 215.385C116.109 215.202 115.601 215.017 114.982 214.828C114.305 214.62 113.68 214.389 113.107 214.135C112.541 213.874 112.046 213.575 111.623 213.236C111.2 212.891 110.871 212.497 110.637 212.055C110.402 211.605 110.285 211.088 110.285 210.502C110.285 209.923 110.406 209.395 110.646 208.92C110.894 208.445 111.242 208.035 111.691 207.689C112.147 207.338 112.684 207.068 113.303 206.879C113.921 206.684 114.605 206.586 115.354 206.586C116.408 206.586 117.316 206.781 118.078 207.172C118.846 207.562 119.436 208.087 119.846 208.744C120.262 209.402 120.471 210.128 120.471 210.922H118.039C118.039 210.453 117.938 210.04 117.736 209.682C117.541 209.317 117.242 209.031 116.838 208.822C116.441 208.614 115.936 208.51 115.324 208.51C114.745 208.51 114.263 208.598 113.879 208.773C113.495 208.949 113.208 209.187 113.02 209.486C112.831 209.786 112.736 210.124 112.736 210.502C112.736 210.769 112.798 211.013 112.922 211.234C113.046 211.449 113.234 211.651 113.488 211.84C113.742 212.022 114.061 212.195 114.445 212.357C114.829 212.52 115.282 212.676 115.803 212.826C116.59 213.061 117.277 213.321 117.863 213.607C118.449 213.887 118.938 214.206 119.328 214.564C119.719 214.923 120.012 215.329 120.207 215.785C120.402 216.234 120.5 216.745 120.5 217.318C120.5 217.917 120.38 218.458 120.139 218.939C119.898 219.415 119.553 219.822 119.104 220.16C118.661 220.492 118.127 220.749 117.502 220.932C116.883 221.107 116.193 221.195 115.432 221.195C114.748 221.195 114.074 221.104 113.41 220.922C112.753 220.74 112.154 220.463 111.613 220.092C111.073 219.714 110.643 219.245 110.324 218.686C110.005 218.119 109.846 217.458 109.846 216.703H112.297C112.297 217.165 112.375 217.559 112.531 217.885C112.694 218.21 112.919 218.477 113.205 218.686C113.492 218.887 113.824 219.037 114.201 219.135C114.585 219.232 114.995 219.281 115.432 219.281C116.005 219.281 116.483 219.2 116.867 219.037C117.258 218.874 117.551 218.646 117.746 218.354C117.941 218.061 118.039 217.722 118.039 217.338ZM132.062 212.719V214.662H124.514V212.719H132.062ZM125.119 206.781V221H122.668V206.781H125.119ZM133.947 206.781V221H131.506V206.781H133.947ZM147.18 214.574H143.557L143.537 212.787H146.701C147.235 212.787 147.688 212.709 148.059 212.553C148.436 212.39 148.723 212.159 148.918 211.859C149.113 211.553 149.211 211.186 149.211 210.756C149.211 210.281 149.12 209.893 148.938 209.594C148.755 209.294 148.475 209.076 148.098 208.939C147.727 208.803 147.251 208.734 146.672 208.734H144.299V221H141.848V206.781H146.672C147.453 206.781 148.15 206.856 148.762 207.006C149.38 207.156 149.904 207.39 150.334 207.709C150.77 208.021 151.099 208.419 151.32 208.9C151.548 209.382 151.662 209.955 151.662 210.619C151.662 211.205 151.522 211.742 151.242 212.23C150.962 212.712 150.549 213.106 150.002 213.412C149.455 213.718 148.775 213.9 147.961 213.959L147.18 214.574ZM147.072 221H142.785L143.889 219.057H147.072C147.626 219.057 148.088 218.965 148.459 218.783C148.83 218.594 149.107 218.337 149.289 218.012C149.478 217.68 149.572 217.292 149.572 216.85C149.572 216.387 149.491 215.987 149.328 215.648C149.165 215.303 148.908 215.04 148.557 214.857C148.205 214.669 147.746 214.574 147.18 214.574H144.426L144.445 212.787H148.029L148.586 213.461C149.367 213.487 150.008 213.66 150.51 213.979C151.018 214.298 151.395 214.711 151.643 215.219C151.89 215.727 152.014 216.273 152.014 216.859C152.014 217.764 151.815 218.523 151.418 219.135C151.027 219.747 150.464 220.212 149.729 220.531C148.993 220.844 148.107 221 147.072 221ZM165.822 213.5V214.281C165.822 215.355 165.682 216.319 165.402 217.172C165.122 218.025 164.722 218.751 164.201 219.35C163.687 219.949 163.068 220.408 162.346 220.727C161.623 221.039 160.822 221.195 159.943 221.195C159.071 221.195 158.273 221.039 157.551 220.727C156.835 220.408 156.213 219.949 155.686 219.35C155.158 218.751 154.748 218.025 154.455 217.172C154.169 216.319 154.025 215.355 154.025 214.281V213.5C154.025 212.426 154.169 211.465 154.455 210.619C154.742 209.766 155.145 209.04 155.666 208.441C156.193 207.836 156.815 207.377 157.531 207.064C158.254 206.745 159.051 206.586 159.924 206.586C160.803 206.586 161.604 206.745 162.326 207.064C163.049 207.377 163.671 207.836 164.191 208.441C164.712 209.04 165.113 209.766 165.393 210.619C165.679 211.465 165.822 212.426 165.822 213.5ZM163.371 214.281V213.48C163.371 212.686 163.293 211.986 163.137 211.381C162.987 210.769 162.762 210.258 162.463 209.848C162.17 209.431 161.809 209.118 161.379 208.91C160.949 208.695 160.464 208.588 159.924 208.588C159.383 208.588 158.902 208.695 158.479 208.91C158.055 209.118 157.694 209.431 157.395 209.848C157.102 210.258 156.877 210.769 156.721 211.381C156.564 211.986 156.486 212.686 156.486 213.48V214.281C156.486 215.076 156.564 215.779 156.721 216.391C156.877 217.003 157.105 217.52 157.404 217.943C157.71 218.36 158.075 218.676 158.498 218.891C158.921 219.099 159.403 219.203 159.943 219.203C160.49 219.203 160.975 219.099 161.398 218.891C161.822 218.676 162.18 218.36 162.473 217.943C162.766 217.52 162.987 217.003 163.137 216.391C163.293 215.779 163.371 215.076 163.371 214.281ZM173.596 208.676L169.348 221H166.779L172.131 206.781H173.771L173.596 208.676ZM177.15 221L172.893 208.676L172.707 206.781H174.357L179.729 221H177.15ZM176.945 215.727V217.67H169.211V215.727H176.945ZM181.32 206.781H186.35C187.43 206.781 188.352 206.944 189.113 207.27C189.875 207.595 190.458 208.077 190.861 208.715C191.271 209.346 191.477 210.128 191.477 211.059C191.477 211.768 191.346 212.393 191.086 212.934C190.826 213.474 190.458 213.93 189.982 214.301C189.507 214.665 188.941 214.949 188.283 215.15L187.541 215.512H183.02L183 213.568H186.389C186.975 213.568 187.463 213.464 187.854 213.256C188.244 213.048 188.537 212.764 188.732 212.406C188.934 212.042 189.035 211.632 189.035 211.176C189.035 210.681 188.938 210.251 188.742 209.887C188.553 209.516 188.26 209.232 187.863 209.037C187.466 208.835 186.962 208.734 186.35 208.734H183.771V221H181.32V206.781ZM189.436 221L186.096 214.613L188.664 214.604L192.053 220.873V221H189.436ZM198.049 221H195.012L195.031 219.057H198.049C198.928 219.057 199.663 218.865 200.256 218.48C200.855 218.096 201.304 217.546 201.604 216.83C201.91 216.114 202.062 215.261 202.062 214.271V213.5C202.062 212.732 201.975 212.051 201.799 211.459C201.63 210.867 201.376 210.368 201.037 209.965C200.705 209.561 200.295 209.255 199.807 209.047C199.325 208.839 198.768 208.734 198.137 208.734H194.953V206.781H198.137C199.081 206.781 199.943 206.941 200.725 207.26C201.506 207.572 202.18 208.025 202.746 208.617C203.319 209.21 203.758 209.919 204.064 210.746C204.37 211.573 204.523 212.497 204.523 213.52V214.271C204.523 215.294 204.37 216.218 204.064 217.045C203.758 217.872 203.319 218.581 202.746 219.174C202.173 219.76 201.49 220.212 200.695 220.531C199.908 220.844 199.025 221 198.049 221ZM196.369 206.781V221H193.918V206.781H196.369Z" fill="#006E90"/>
<path d="M53.5 202.75H44.75V211.5H53.5V202.75Z" stroke="#006E90" stroke-width="2" stroke-linecap="round" stroke-linejoin="round"/>
<path d="M67.25 202.75H58.5V211.5H67.25V202.75Z" stroke="#006E90" stroke-width="2" stroke-linecap="round" stroke-linejoin="round"/>
<path d="M67.25 216.5H58.5V225.25H67.25V216.5Z" stroke="#006E90" stroke-width="2" stroke-linecap="round" stroke-linejoin="round"/>
<path d="M53.5 216.5H44.75V225.25H53.5V216.5Z" stroke="#006E90" stroke-width="2" stroke-linecap="round" stroke-linejoin="round"/>
<path d="M92.8438 300.371H95.2852C95.207 301.302 94.9466 302.132 94.5039 302.861C94.0612 303.584 93.4395 304.154 92.6387 304.57C91.8379 304.987 90.8646 305.195 89.7188 305.195C88.8398 305.195 88.0488 305.039 87.3457 304.727C86.6426 304.408 86.0404 303.958 85.5391 303.379C85.0378 302.793 84.6536 302.087 84.3867 301.26C84.1263 300.433 83.9961 299.508 83.9961 298.486V297.305C83.9961 296.283 84.1296 295.358 84.3965 294.531C84.6699 293.704 85.0605 292.998 85.5684 292.412C86.0762 291.82 86.6849 291.367 87.3945 291.055C88.1107 290.742 88.9147 290.586 89.8066 290.586C90.9395 290.586 91.8965 290.794 92.6777 291.211C93.459 291.628 94.0645 292.204 94.4941 292.939C94.9303 293.675 95.1973 294.518 95.2949 295.469H92.8535C92.7884 294.857 92.6452 294.333 92.4238 293.896C92.209 293.46 91.89 293.128 91.4668 292.9C91.0436 292.666 90.4902 292.549 89.8066 292.549C89.2467 292.549 88.7585 292.653 88.3418 292.861C87.9251 293.07 87.5768 293.376 87.2969 293.779C87.0169 294.183 86.8053 294.681 86.6621 295.273C86.5254 295.859 86.457 296.53 86.457 297.285V298.486C86.457 299.202 86.5189 299.854 86.6426 300.439C86.7728 301.019 86.9681 301.517 87.2285 301.934C87.4954 302.35 87.834 302.673 88.2441 302.9C88.6543 303.128 89.1458 303.242 89.7188 303.242C90.4154 303.242 90.9785 303.132 91.4082 302.91C91.8444 302.689 92.1732 302.367 92.3945 301.943C92.6224 301.514 92.7721 300.99 92.8438 300.371ZM108.85 297.5V298.281C108.85 299.355 108.71 300.319 108.43 301.172C108.15 302.025 107.749 302.751 107.229 303.35C106.714 303.949 106.096 304.408 105.373 304.727C104.65 305.039 103.85 305.195 102.971 305.195C102.098 305.195 101.301 305.039 100.578 304.727C99.862 304.408 99.2402 303.949 98.7129 303.35C98.1855 302.751 97.7754 302.025 97.4824 301.172C97.196 300.319 97.0527 299.355 97.0527 298.281V297.5C97.0527 296.426 97.196 295.465 97.4824 294.619C97.7689 293.766 98.1725 293.04 98.6934 292.441C99.2207 291.836 99.8424 291.377 100.559 291.064C101.281 290.745 102.079 290.586 102.951 290.586C103.83 290.586 104.631 290.745 105.354 291.064C106.076 291.377 106.698 291.836 107.219 292.441C107.74 293.04 108.14 293.766 108.42 294.619C108.706 295.465 108.85 296.426 108.85 297.5ZM106.398 298.281V297.48C106.398 296.686 106.32 295.986 106.164 295.381C106.014 294.769 105.79 294.258 105.49 293.848C105.197 293.431 104.836 293.118 104.406 292.91C103.977 292.695 103.492 292.588 102.951 292.588C102.411 292.588 101.929 292.695 101.506 292.91C101.083 293.118 100.721 293.431 100.422 293.848C100.129 294.258 99.9043 294.769 99.748 295.381C99.5918 295.986 99.5137 296.686 99.5137 297.48V298.281C99.5137 299.076 99.5918 299.779 99.748 300.391C99.9043 301.003 100.132 301.52 100.432 301.943C100.738 302.36 101.102 302.676 101.525 302.891C101.949 303.099 102.43 303.203 102.971 303.203C103.518 303.203 104.003 303.099 104.426 302.891C104.849 302.676 105.207 302.36 105.5 301.943C105.793 301.52 106.014 301.003 106.164 300.391C106.32 299.779 106.398 299.076 106.398 298.281ZM119.279 290.781H121.721V300.283C121.721 301.364 121.486 302.269 121.018 302.998C120.549 303.727 119.911 304.277 119.104 304.648C118.303 305.013 117.408 305.195 116.418 305.195C115.396 305.195 114.484 305.013 113.684 304.648C112.883 304.277 112.251 303.727 111.789 302.998C111.333 302.269 111.105 301.364 111.105 300.283V290.781H113.547V300.283C113.547 300.967 113.664 301.53 113.898 301.973C114.133 302.409 114.465 302.731 114.895 302.939C115.324 303.148 115.832 303.252 116.418 303.252C117.004 303.252 117.508 303.148 117.932 302.939C118.361 302.731 118.693 302.409 118.928 301.973C119.162 301.53 119.279 300.967 119.279 300.283V290.781ZM124.387 290.781H129.416C130.497 290.781 131.418 290.944 132.18 291.27C132.941 291.595 133.524 292.077 133.928 292.715C134.338 293.346 134.543 294.128 134.543 295.059C134.543 295.768 134.413 296.393 134.152 296.934C133.892 297.474 133.524 297.93 133.049 298.301C132.574 298.665 132.007 298.949 131.35 299.15L130.607 299.512H126.086L126.066 297.568H129.455C130.041 297.568 130.529 297.464 130.92 297.256C131.311 297.048 131.604 296.764 131.799 296.406C132.001 296.042 132.102 295.632 132.102 295.176C132.102 294.681 132.004 294.251 131.809 293.887C131.62 293.516 131.327 293.232 130.93 293.037C130.533 292.835 130.028 292.734 129.416 292.734H126.838V305H124.387V290.781ZM132.502 305L129.162 298.613L131.73 298.604L135.119 304.873V305H132.502ZM144.465 301.338C144.465 301.045 144.419 300.785 144.328 300.557C144.243 300.329 144.09 300.12 143.869 299.932C143.648 299.743 143.335 299.561 142.932 299.385C142.535 299.202 142.027 299.017 141.408 298.828C140.731 298.62 140.106 298.389 139.533 298.135C138.967 297.874 138.472 297.575 138.049 297.236C137.626 296.891 137.297 296.497 137.062 296.055C136.828 295.605 136.711 295.088 136.711 294.502C136.711 293.923 136.831 293.395 137.072 292.92C137.32 292.445 137.668 292.035 138.117 291.689C138.573 291.338 139.11 291.068 139.729 290.879C140.347 290.684 141.031 290.586 141.779 290.586C142.834 290.586 143.742 290.781 144.504 291.172C145.272 291.562 145.861 292.087 146.271 292.744C146.688 293.402 146.896 294.128 146.896 294.922H144.465C144.465 294.453 144.364 294.04 144.162 293.682C143.967 293.317 143.667 293.031 143.264 292.822C142.867 292.614 142.362 292.51 141.75 292.51C141.171 292.51 140.689 292.598 140.305 292.773C139.921 292.949 139.634 293.187 139.445 293.486C139.257 293.786 139.162 294.124 139.162 294.502C139.162 294.769 139.224 295.013 139.348 295.234C139.471 295.449 139.66 295.651 139.914 295.84C140.168 296.022 140.487 296.195 140.871 296.357C141.255 296.52 141.708 296.676 142.229 296.826C143.016 297.061 143.703 297.321 144.289 297.607C144.875 297.887 145.363 298.206 145.754 298.564C146.145 298.923 146.438 299.329 146.633 299.785C146.828 300.234 146.926 300.745 146.926 301.318C146.926 301.917 146.805 302.458 146.564 302.939C146.324 303.415 145.979 303.822 145.529 304.16C145.087 304.492 144.553 304.749 143.928 304.932C143.309 305.107 142.619 305.195 141.857 305.195C141.174 305.195 140.5 305.104 139.836 304.922C139.178 304.74 138.579 304.463 138.039 304.092C137.499 303.714 137.069 303.245 136.75 302.686C136.431 302.119 136.271 301.458 136.271 300.703H138.723C138.723 301.165 138.801 301.559 138.957 301.885C139.12 302.21 139.344 302.477 139.631 302.686C139.917 302.887 140.249 303.037 140.627 303.135C141.011 303.232 141.421 303.281 141.857 303.281C142.43 303.281 142.909 303.2 143.293 303.037C143.684 302.874 143.977 302.646 144.172 302.354C144.367 302.061 144.465 301.722 144.465 301.338ZM158.4 303.057V305H150.852V303.057H158.4ZM151.545 290.781V305H149.094V290.781H151.545ZM157.414 296.719V298.633H150.852V296.719H157.414ZM158.352 290.781V292.734H150.852V290.781H158.352ZM167.883 301.338C167.883 301.045 167.837 300.785 167.746 300.557C167.661 300.329 167.508 300.12 167.287 299.932C167.066 299.743 166.753 299.561 166.35 299.385C165.952 299.202 165.445 299.017 164.826 298.828C164.149 298.62 163.524 298.389 162.951 298.135C162.385 297.874 161.89 297.575 161.467 297.236C161.044 296.891 160.715 296.497 160.48 296.055C160.246 295.605 160.129 295.088 160.129 294.502C160.129 293.923 160.249 293.395 160.49 292.92C160.738 292.445 161.086 292.035 161.535 291.689C161.991 291.338 162.528 291.068 163.146 290.879C163.765 290.684 164.449 290.586 165.197 290.586C166.252 290.586 167.16 290.781 167.922 291.172C168.69 291.562 169.279 292.087 169.689 292.744C170.106 293.402 170.314 294.128 170.314 294.922H167.883C167.883 294.453 167.782 294.04 167.58 293.682C167.385 293.317 167.085 293.031 166.682 292.822C166.285 292.614 165.78 292.51 165.168 292.51C164.589 292.51 164.107 292.598 163.723 292.773C163.339 292.949 163.052 293.187 162.863 293.486C162.674 293.786 162.58 294.124 162.58 294.502C162.58 294.769 162.642 295.013 162.766 295.234C162.889 295.449 163.078 295.651 163.332 295.84C163.586 296.022 163.905 296.195 164.289 296.357C164.673 296.52 165.126 296.676 165.646 296.826C166.434 297.061 167.121 297.321 167.707 297.607C168.293 297.887 168.781 298.206 169.172 298.564C169.562 298.923 169.855 299.329 170.051 299.785C170.246 300.234 170.344 300.745 170.344 301.318C170.344 301.917 170.223 302.458 169.982 302.939C169.742 303.415 169.396 303.822 168.947 304.16C168.505 304.492 167.971 304.749 167.346 304.932C166.727 305.107 166.037 305.195 165.275 305.195C164.592 305.195 163.918 305.104 163.254 304.922C162.596 304.74 161.997 304.463 161.457 304.092C160.917 303.714 160.487 303.245 160.168 302.686C159.849 302.119 159.689 301.458 159.689 300.703H162.141C162.141 301.165 162.219 301.559 162.375 301.885C162.538 302.21 162.762 302.477 163.049 302.686C163.335 302.887 163.667 303.037 164.045 303.135C164.429 303.232 164.839 303.281 165.275 303.281C165.848 303.281 166.327 303.2 166.711 303.037C167.102 302.874 167.395 302.646 167.59 302.354C167.785 302.061 167.883 301.722 167.883 301.338Z" fill="#707070"/>
<path d="M43.9102 286.863H51.4102C52.7362 286.863 54.008 287.39 54.9457 288.328C55.8834 289.265 56.4102 290.537 56.4102 291.863V309.363C56.4102 308.369 56.0151 307.415 55.3118 306.711C54.6085 306.008 53.6547 305.613 52.6602 305.613H43.9102V286.863Z" stroke="#707070" stroke-width="2" stroke-linecap="round" stroke-linejoin="round"/>
<path d="M68.9102 286.863H61.4102C60.0841 286.863 58.8123 287.39 57.8746 288.328C56.9369 289.265 56.4102 290.537 56.4102 291.863V309.363C56.4102 308.369 56.8052 307.415 57.5085 306.711C58.2118 306.008 59.1656 305.613 60.1602 305.613H68.9102V286.863Z" stroke="#707070" stroke-width="2" stroke-linecap="round" stroke-linejoin="round"/>
<path d="M92.8438 386.371H95.2852C95.207 387.302 94.9466 388.132 94.5039 388.861C94.0612 389.584 93.4395 390.154 92.6387 390.57C91.8379 390.987 90.8646 391.195 89.7188 391.195C88.8398 391.195 88.0488 391.039 87.3457 390.727C86.6426 390.408 86.0404 389.958 85.5391 389.379C85.0378 388.793 84.6536 388.087 84.3867 387.26C84.1263 386.433 83.9961 385.508 83.9961 384.486V383.305C83.9961 382.283 84.1296 381.358 84.3965 380.531C84.6699 379.704 85.0605 378.998 85.5684 378.412C86.0762 377.82 86.6849 377.367 87.3945 377.055C88.1107 376.742 88.9147 376.586 89.8066 376.586C90.9395 376.586 91.8965 376.794 92.6777 377.211C93.459 377.628 94.0645 378.204 94.4941 378.939C94.9303 379.675 95.1973 380.518 95.2949 381.469H92.8535C92.7884 380.857 92.6452 380.333 92.4238 379.896C92.209 379.46 91.89 379.128 91.4668 378.9C91.0436 378.666 90.4902 378.549 89.8066 378.549C89.2467 378.549 88.7585 378.653 88.3418 378.861C87.9251 379.07 87.5768 379.376 87.2969 379.779C87.0169 380.183 86.8053 380.681 86.6621 381.273C86.5254 381.859 86.457 382.53 86.457 383.285V384.486C86.457 385.202 86.5189 385.854 86.6426 386.439C86.7728 387.019 86.9681 387.517 87.2285 387.934C87.4954 388.35 87.834 388.673 88.2441 388.9C88.6543 389.128 89.1458 389.242 89.7188 389.242C90.4154 389.242 90.9785 389.132 91.4082 388.91C91.8444 388.689 92.1732 388.367 92.3945 387.943C92.6224 387.514 92.7721 386.99 92.8438 386.371ZM106.906 382.719V384.662H99.3574V382.719H106.906ZM99.9629 376.781V391H97.5117V376.781H99.9629ZM108.791 376.781V391H106.35V376.781H108.791ZM117.424 378.676L113.176 391H110.607L115.959 376.781H117.6L117.424 378.676ZM120.979 391L116.721 378.676L116.535 376.781H118.186L123.557 391H120.979ZM120.773 385.727V387.67H113.039V385.727H120.773ZM129.768 376.781V391H127.336V376.781H129.768ZM134.23 376.781V378.734H122.912V376.781H134.23Z" fill="#707070"/>
<path d="M66.4101 381.502C66.4143 383.115 66.0374 384.706 65.3101 386.146C64.4478 387.872 63.122 389.323 61.4815 390.338C59.8409 391.352 57.9502 391.89 56.0212 391.891C54.4081 391.895 52.8167 391.518 51.3768 390.791L44.4102 393.113L46.7324 386.146C46.0051 384.706 45.6282 383.115 45.6324 381.502C45.6331 379.573 46.1709 377.682 47.1855 376.042C48.2 374.401 49.6513 373.075 51.3768 372.213C52.8167 371.486 54.4081 371.109 56.0212 371.113H56.6324C59.1799 371.254 61.5861 372.329 63.3902 374.133C65.1943 375.937 66.2696 378.343 66.4101 380.891V381.502Z" stroke="#707070" stroke-width="2" stroke-linecap="round" stroke-linejoin="round"/>
<path d="M94.3633 467.734V473.164C94.1615 473.431 93.8457 473.724 93.416 474.043C92.9928 474.355 92.4297 474.626 91.7266 474.853C91.0234 475.081 90.1478 475.195 89.0996 475.195C88.2077 475.195 87.3906 475.046 86.6484 474.746C85.9062 474.44 85.265 473.994 84.7246 473.408C84.1908 472.822 83.7773 472.109 83.4844 471.27C83.1914 470.423 83.0449 469.46 83.0449 468.379V467.393C83.0449 466.318 83.1784 465.361 83.4453 464.521C83.7188 463.675 84.1094 462.959 84.6172 462.373C85.125 461.787 85.737 461.344 86.4531 461.045C87.1758 460.739 87.9928 460.586 88.9043 460.586C90.0697 460.586 91.0332 460.781 91.7949 461.172C92.5632 461.556 93.1556 462.09 93.5723 462.773C93.9889 463.457 94.2526 464.238 94.3633 465.117H91.9609C91.8828 464.622 91.7298 464.18 91.502 463.789C91.2806 463.398 90.9616 463.092 90.5449 462.871C90.1348 462.643 89.6009 462.529 88.9434 462.529C88.377 462.529 87.8789 462.637 87.4492 462.852C87.0195 463.066 86.6615 463.382 86.375 463.799C86.0951 464.215 85.8835 464.723 85.7402 465.322C85.597 465.921 85.5254 466.605 85.5254 467.373V468.379C85.5254 469.16 85.6068 469.853 85.7695 470.459C85.9388 471.064 86.1797 471.575 86.4922 471.992C86.8112 472.409 87.1986 472.725 87.6543 472.939C88.11 473.148 88.6243 473.252 89.1973 473.252C89.7572 473.252 90.2161 473.206 90.5742 473.115C90.9323 473.018 91.2155 472.904 91.4238 472.773C91.6387 472.637 91.8047 472.506 91.9219 472.383V469.561H88.9629V467.734H94.3633ZM97.0781 460.781H102.107C103.188 460.781 104.109 460.944 104.871 461.27C105.633 461.595 106.215 462.077 106.619 462.715C107.029 463.346 107.234 464.128 107.234 465.059C107.234 465.768 107.104 466.393 106.844 466.934C106.583 467.474 106.215 467.93 105.74 468.301C105.265 468.665 104.699 468.949 104.041 469.15L103.299 469.512H98.7773L98.7578 467.568H102.146C102.732 467.568 103.221 467.464 103.611 467.256C104.002 467.047 104.295 466.764 104.49 466.406C104.692 466.042 104.793 465.631 104.793 465.176C104.793 464.681 104.695 464.251 104.5 463.887C104.311 463.516 104.018 463.232 103.621 463.037C103.224 462.835 102.719 462.734 102.107 462.734H99.5293V475H97.0781V460.781ZM105.193 475L101.854 468.613L104.422 468.603L107.811 474.873V475H105.193ZM115.213 462.676L110.965 475H108.396L113.748 460.781H115.389L115.213 462.676ZM118.768 475L114.51 462.676L114.324 460.781H115.975L121.346 475H118.768ZM118.562 469.727V471.67H110.828V469.727H118.562ZM127.068 475H124.031L124.051 473.057H127.068C127.947 473.057 128.683 472.865 129.275 472.48C129.874 472.096 130.324 471.546 130.623 470.83C130.929 470.114 131.082 469.261 131.082 468.271V467.5C131.082 466.732 130.994 466.051 130.818 465.459C130.649 464.867 130.395 464.368 130.057 463.965C129.725 463.561 129.314 463.255 128.826 463.047C128.344 462.839 127.788 462.734 127.156 462.734H123.973V460.781H127.156C128.1 460.781 128.963 460.941 129.744 461.26C130.525 461.572 131.199 462.025 131.766 462.617C132.339 463.21 132.778 463.919 133.084 464.746C133.39 465.573 133.543 466.497 133.543 467.52V468.271C133.543 469.294 133.39 470.218 133.084 471.045C132.778 471.872 132.339 472.581 131.766 473.174C131.193 473.76 130.509 474.212 129.715 474.531C128.927 474.844 128.045 475 127.068 475ZM125.389 460.781V475H122.938V460.781H125.389ZM145.311 473.057V475H137.762V473.057H145.311ZM138.455 460.781V475H136.004V460.781H138.455ZM144.324 466.719V468.633H137.762V466.719H144.324ZM145.262 460.781V462.734H137.762V460.781H145.262ZM154.793 471.338C154.793 471.045 154.747 470.784 154.656 470.557C154.572 470.329 154.419 470.12 154.197 469.932C153.976 469.743 153.663 469.561 153.26 469.385C152.863 469.202 152.355 469.017 151.736 468.828C151.059 468.62 150.434 468.389 149.861 468.135C149.295 467.874 148.8 467.575 148.377 467.236C147.954 466.891 147.625 466.497 147.391 466.055C147.156 465.605 147.039 465.088 147.039 464.502C147.039 463.922 147.16 463.395 147.4 462.92C147.648 462.445 147.996 462.034 148.445 461.689C148.901 461.338 149.438 461.068 150.057 460.879C150.675 460.684 151.359 460.586 152.107 460.586C153.162 460.586 154.07 460.781 154.832 461.172C155.6 461.562 156.189 462.087 156.6 462.744C157.016 463.402 157.225 464.128 157.225 464.922H154.793C154.793 464.453 154.692 464.04 154.49 463.682C154.295 463.317 153.995 463.031 153.592 462.822C153.195 462.614 152.69 462.51 152.078 462.51C151.499 462.51 151.017 462.598 150.633 462.773C150.249 462.949 149.962 463.187 149.773 463.486C149.585 463.786 149.49 464.124 149.49 464.502C149.49 464.769 149.552 465.013 149.676 465.234C149.799 465.449 149.988 465.651 150.242 465.84C150.496 466.022 150.815 466.195 151.199 466.357C151.583 466.52 152.036 466.676 152.557 466.826C153.344 467.061 154.031 467.321 154.617 467.607C155.203 467.887 155.691 468.206 156.082 468.564C156.473 468.922 156.766 469.329 156.961 469.785C157.156 470.234 157.254 470.745 157.254 471.318C157.254 471.917 157.133 472.458 156.893 472.939C156.652 473.415 156.307 473.822 155.857 474.16C155.415 474.492 154.881 474.749 154.256 474.932C153.637 475.107 152.947 475.195 152.186 475.195C151.502 475.195 150.828 475.104 150.164 474.922C149.507 474.74 148.908 474.463 148.367 474.092C147.827 473.714 147.397 473.245 147.078 472.686C146.759 472.119 146.6 471.458 146.6 470.703H149.051C149.051 471.165 149.129 471.559 149.285 471.885C149.448 472.21 149.673 472.477 149.959 472.686C150.245 472.887 150.577 473.037 150.955 473.135C151.339 473.232 151.749 473.281 152.186 473.281C152.758 473.281 153.237 473.2 153.621 473.037C154.012 472.874 154.305 472.646 154.5 472.353C154.695 472.061 154.793 471.722 154.793 471.338Z" fill="#707070"/>
<path d="M63.4102 459.824L49.6602 473.574L43.4102 467.324" stroke="#707070" stroke-width="2" stroke-linecap="round" stroke-linejoin="round"/>
<path d="M90.9258 555.338C90.9258 555.045 90.8802 554.784 90.7891 554.557C90.7044 554.329 90.5514 554.12 90.3301 553.932C90.1087 553.743 89.7962 553.56 89.3926 553.385C88.9954 553.202 88.4876 553.017 87.8691 552.828C87.1921 552.62 86.5671 552.389 85.9941 552.135C85.4277 551.874 84.9329 551.575 84.5098 551.236C84.0866 550.891 83.7578 550.497 83.5234 550.055C83.2891 549.605 83.1719 549.088 83.1719 548.502C83.1719 547.922 83.2923 547.395 83.5332 546.92C83.7806 546.445 84.1289 546.034 84.5781 545.689C85.0339 545.338 85.571 545.068 86.1895 544.879C86.8079 544.684 87.4915 544.586 88.2402 544.586C89.2949 544.586 90.2031 544.781 90.9648 545.172C91.7331 545.562 92.3223 546.087 92.7324 546.744C93.1491 547.402 93.3574 548.128 93.3574 548.922H90.9258C90.9258 548.453 90.8249 548.04 90.623 547.682C90.4277 547.317 90.1283 547.031 89.7246 546.822C89.3275 546.614 88.8229 546.51 88.2109 546.51C87.6315 546.51 87.1497 546.598 86.7656 546.773C86.3815 546.949 86.0951 547.187 85.9062 547.486C85.7174 547.786 85.623 548.124 85.623 548.502C85.623 548.769 85.6849 549.013 85.8086 549.234C85.9323 549.449 86.1211 549.651 86.375 549.84C86.6289 550.022 86.9479 550.195 87.332 550.357C87.7161 550.52 88.1686 550.676 88.6895 550.826C89.4772 551.06 90.1641 551.321 90.75 551.607C91.3359 551.887 91.8242 552.206 92.2148 552.564C92.6055 552.922 92.8984 553.329 93.0938 553.785C93.2891 554.234 93.3867 554.745 93.3867 555.318C93.3867 555.917 93.2663 556.458 93.0254 556.939C92.7845 557.415 92.4395 557.822 91.9902 558.16C91.5475 558.492 91.0137 558.749 90.3887 558.932C89.7702 559.107 89.0801 559.195 88.3184 559.195C87.6348 559.195 86.9609 559.104 86.2969 558.922C85.6393 558.74 85.0404 558.463 84.5 558.092C83.9596 557.714 83.5299 557.245 83.2109 556.685C82.8919 556.119 82.7324 555.458 82.7324 554.703H85.1836C85.1836 555.165 85.2617 555.559 85.418 555.885C85.5807 556.21 85.8053 556.477 86.0918 556.685C86.3783 556.887 86.7103 557.037 87.0879 557.135C87.472 557.232 87.8822 557.281 88.3184 557.281C88.8913 557.281 89.3698 557.2 89.7539 557.037C90.1445 556.874 90.4375 556.646 90.6328 556.353C90.8281 556.06 90.9258 555.722 90.9258 555.338ZM103.953 554.371H106.395C106.316 555.302 106.056 556.132 105.613 556.861C105.171 557.584 104.549 558.154 103.748 558.57C102.947 558.987 101.974 559.195 100.828 559.195C99.9492 559.195 99.1582 559.039 98.4551 558.727C97.752 558.407 97.1497 557.958 96.6484 557.379C96.1471 556.793 95.763 556.087 95.4961 555.26C95.2357 554.433 95.1055 553.508 95.1055 552.486V551.305C95.1055 550.282 95.2389 549.358 95.5059 548.531C95.7793 547.704 96.1699 546.998 96.6777 546.412C97.1855 545.82 97.7943 545.367 98.5039 545.055C99.2201 544.742 100.024 544.586 100.916 544.586C102.049 544.586 103.006 544.794 103.787 545.211C104.568 545.628 105.174 546.204 105.604 546.939C106.04 547.675 106.307 548.518 106.404 549.469H103.963C103.898 548.857 103.755 548.333 103.533 547.896C103.318 547.46 102.999 547.128 102.576 546.9C102.153 546.666 101.6 546.549 100.916 546.549C100.356 546.549 99.8678 546.653 99.4512 546.861C99.0345 547.07 98.6862 547.376 98.4062 547.779C98.1263 548.183 97.9147 548.681 97.7715 549.273C97.6348 549.859 97.5664 550.53 97.5664 551.285V552.486C97.5664 553.202 97.6283 553.853 97.752 554.439C97.8822 555.019 98.0775 555.517 98.3379 555.934C98.6048 556.35 98.9434 556.672 99.3535 556.9C99.7637 557.128 100.255 557.242 100.828 557.242C101.525 557.242 102.088 557.131 102.518 556.91C102.954 556.689 103.283 556.366 103.504 555.943C103.732 555.514 103.882 554.99 103.953 554.371ZM118.016 550.719V552.662H110.467V550.719H118.016ZM111.072 544.781V559H108.621V544.781H111.072ZM119.9 544.781V559H117.459V544.781H119.9ZM132.127 557.057V559H124.578V557.057H132.127ZM125.271 544.781V559H122.82V544.781H125.271ZM131.141 550.719V552.633H124.578V550.719H131.141ZM132.078 544.781V546.734H124.578V544.781H132.078ZM138.26 559H135.223L135.242 557.057H138.26C139.139 557.057 139.874 556.865 140.467 556.48C141.066 556.096 141.515 555.546 141.814 554.83C142.12 554.114 142.273 553.261 142.273 552.271V551.5C142.273 550.732 142.186 550.051 142.01 549.459C141.84 548.866 141.587 548.368 141.248 547.965C140.916 547.561 140.506 547.255 140.018 547.047C139.536 546.838 138.979 546.734 138.348 546.734H135.164V544.781H138.348C139.292 544.781 140.154 544.941 140.936 545.26C141.717 545.572 142.391 546.025 142.957 546.617C143.53 547.21 143.969 547.919 144.275 548.746C144.581 549.573 144.734 550.497 144.734 551.519V552.271C144.734 553.294 144.581 554.218 144.275 555.045C143.969 555.872 143.53 556.581 142.957 557.174C142.384 557.76 141.701 558.212 140.906 558.531C140.118 558.844 139.236 559 138.26 559ZM136.58 544.781V559H134.129V544.781H136.58ZM155.174 544.781H157.615V554.283C157.615 555.364 157.381 556.269 156.912 556.998C156.443 557.727 155.805 558.277 154.998 558.648C154.197 559.013 153.302 559.195 152.312 559.195C151.29 559.195 150.379 559.013 149.578 558.648C148.777 558.277 148.146 557.727 147.684 556.998C147.228 556.269 147 555.364 147 554.283V544.781H149.441V554.283C149.441 554.967 149.559 555.53 149.793 555.973C150.027 556.409 150.359 556.731 150.789 556.939C151.219 557.148 151.727 557.252 152.312 557.252C152.898 557.252 153.403 557.148 153.826 556.939C154.256 556.731 154.588 556.409 154.822 555.973C155.057 555.53 155.174 554.967 155.174 554.283V544.781ZM169.188 557.057V559H162.049V557.057H169.188ZM162.732 544.781V559H160.281V544.781H162.732ZM180.389 557.057V559H172.84V557.057H180.389ZM173.533 544.781V559H171.082V544.781H173.533ZM179.402 550.719V552.633H172.84V550.719H179.402ZM180.34 544.781V546.734H172.84V544.781H180.34Z" fill="#707070"/>
<path d="M61.7852 539.824H46.0352C44.7925 539.824 43.7852 540.831 43.7852 542.074V557.824C43.7852 559.067 44.7925 560.074 46.0352 560.074H61.7852C63.0278 560.074 64.0352 559.067 64.0352 557.824V542.074C64.0352 540.831 63.0278 539.824 61.7852 539.824Z" stroke="#707070" stroke-width="2" stroke-linecap="round" stroke-linejoin="round"/>
<path d="M58.4102 537.574V542.074" stroke="#707070" stroke-width="2" stroke-linecap="round" stroke-linejoin="round"/>
<path d="M49.4102 537.574V542.074" stroke="#707070" stroke-width="2" stroke-linecap="round" stroke-linejoin="round"/>
<path d="M43.7852 546.574H64.0352" stroke="#707070" stroke-width="2" stroke-linecap="round" stroke-linejoin="round"/>
<path d="M94.3633 623.734V629.164C94.1615 629.431 93.8457 629.724 93.416 630.043C92.9928 630.355 92.4297 630.626 91.7266 630.853C91.0234 631.081 90.1478 631.195 89.0996 631.195C88.2077 631.195 87.3906 631.046 86.6484 630.746C85.9062 630.44 85.265 629.994 84.7246 629.408C84.1908 628.822 83.7773 628.109 83.4844 627.269C83.1914 626.423 83.0449 625.46 83.0449 624.379V623.393C83.0449 622.318 83.1784 621.361 83.4453 620.521C83.7188 619.675 84.1094 618.959 84.6172 618.373C85.125 617.787 85.737 617.344 86.4531 617.045C87.1758 616.739 87.9928 616.586 88.9043 616.586C90.0697 616.586 91.0332 616.781 91.7949 617.172C92.5632 617.556 93.1556 618.09 93.5723 618.773C93.9889 619.457 94.2526 620.238 94.3633 621.117H91.9609C91.8828 620.622 91.7298 620.18 91.502 619.789C91.2806 619.398 90.9616 619.092 90.5449 618.871C90.1348 618.643 89.6009 618.529 88.9434 618.529C88.377 618.529 87.8789 618.637 87.4492 618.852C87.0195 619.066 86.6615 619.382 86.375 619.799C86.0951 620.215 85.8835 620.723 85.7402 621.322C85.597 621.921 85.5254 622.605 85.5254 623.373V624.379C85.5254 625.16 85.6068 625.853 85.7695 626.459C85.9388 627.064 86.1797 627.575 86.4922 627.992C86.8112 628.409 87.1986 628.725 87.6543 628.939C88.11 629.148 88.6243 629.252 89.1973 629.252C89.7572 629.252 90.2161 629.206 90.5742 629.115C90.9323 629.018 91.2155 628.904 91.4238 628.773C91.6387 628.637 91.8047 628.506 91.9219 628.383V625.56H88.9629V623.734H94.3633ZM97.0781 616.781H102.107C103.188 616.781 104.109 616.944 104.871 617.269C105.633 617.595 106.215 618.077 106.619 618.715C107.029 619.346 107.234 620.128 107.234 621.059C107.234 621.768 107.104 622.393 106.844 622.934C106.583 623.474 106.215 623.93 105.74 624.301C105.265 624.665 104.699 624.949 104.041 625.15L103.299 625.512H98.7773L98.7578 623.568H102.146C102.732 623.568 103.221 623.464 103.611 623.256C104.002 623.047 104.295 622.764 104.49 622.406C104.692 622.042 104.793 621.631 104.793 621.176C104.793 620.681 104.695 620.251 104.5 619.887C104.311 619.516 104.018 619.232 103.621 619.037C103.224 618.835 102.719 618.734 102.107 618.734H99.5293V631H97.0781V616.781ZM105.193 631L101.854 624.613L104.422 624.603L107.811 630.873V631H105.193ZM115.213 618.676L110.965 631H108.396L113.748 616.781H115.389L115.213 618.676ZM118.768 631L114.51 618.676L114.324 616.781H115.975L121.346 631H118.768ZM118.562 625.727V627.67H110.828V625.727H118.562ZM127.068 631H124.031L124.051 629.057H127.068C127.947 629.057 128.683 628.865 129.275 628.48C129.874 628.096 130.324 627.546 130.623 626.83C130.929 626.114 131.082 625.261 131.082 624.271V623.5C131.082 622.732 130.994 622.051 130.818 621.459C130.649 620.866 130.395 620.368 130.057 619.965C129.725 619.561 129.314 619.255 128.826 619.047C128.344 618.838 127.788 618.734 127.156 618.734H123.973V616.781H127.156C128.1 616.781 128.963 616.941 129.744 617.26C130.525 617.572 131.199 618.025 131.766 618.617C132.339 619.21 132.778 619.919 133.084 620.746C133.39 621.573 133.543 622.497 133.543 623.519V624.271C133.543 625.294 133.39 626.218 133.084 627.045C132.778 627.872 132.339 628.581 131.766 629.174C131.193 629.76 130.509 630.212 129.715 630.531C128.927 630.844 128.045 631 127.068 631ZM125.389 616.781V631H122.938V616.781H125.389ZM143.982 616.781H146.424V626.283C146.424 627.364 146.189 628.269 145.721 628.998C145.252 629.727 144.614 630.277 143.807 630.648C143.006 631.013 142.111 631.195 141.121 631.195C140.099 631.195 139.188 631.013 138.387 630.648C137.586 630.277 136.954 629.727 136.492 628.998C136.036 628.269 135.809 627.364 135.809 626.283V616.781H138.25V626.283C138.25 626.967 138.367 627.53 138.602 627.973C138.836 628.409 139.168 628.731 139.598 628.939C140.027 629.148 140.535 629.252 141.121 629.252C141.707 629.252 142.212 629.148 142.635 628.939C143.064 628.731 143.396 628.409 143.631 627.973C143.865 627.53 143.982 626.967 143.982 626.283V616.781ZM154.412 618.676L150.164 631H147.596L152.947 616.781H154.588L154.412 618.676ZM157.967 631L153.709 618.676L153.523 616.781H155.174L160.545 631H157.967ZM157.762 625.727V627.67H150.027V625.727H157.762ZM166.756 616.781V631H164.324V616.781H166.756ZM171.219 616.781V618.734H159.9V616.781H171.219ZM175.711 616.781V631H173.26V616.781H175.711ZM190.096 623.5V624.281C190.096 625.355 189.956 626.319 189.676 627.172C189.396 628.025 188.995 628.751 188.475 629.35C187.96 629.949 187.342 630.407 186.619 630.727C185.896 631.039 185.096 631.195 184.217 631.195C183.344 631.195 182.547 631.039 181.824 630.727C181.108 630.407 180.486 629.949 179.959 629.35C179.432 628.751 179.021 628.025 178.729 627.172C178.442 626.319 178.299 625.355 178.299 624.281V623.5C178.299 622.426 178.442 621.465 178.729 620.619C179.015 619.766 179.419 619.04 179.939 618.441C180.467 617.836 181.089 617.377 181.805 617.064C182.527 616.745 183.325 616.586 184.197 616.586C185.076 616.586 185.877 616.745 186.6 617.064C187.322 617.377 187.944 617.836 188.465 618.441C188.986 619.04 189.386 619.766 189.666 620.619C189.952 621.465 190.096 622.426 190.096 623.5ZM187.645 624.281V623.48C187.645 622.686 187.566 621.986 187.41 621.381C187.26 620.769 187.036 620.258 186.736 619.848C186.443 619.431 186.082 619.118 185.652 618.91C185.223 618.695 184.738 618.588 184.197 618.588C183.657 618.588 183.175 618.695 182.752 618.91C182.329 619.118 181.967 619.431 181.668 619.848C181.375 620.258 181.15 620.769 180.994 621.381C180.838 621.986 180.76 622.686 180.76 623.48V624.281C180.76 625.075 180.838 625.779 180.994 626.391C181.15 627.003 181.378 627.52 181.678 627.943C181.984 628.36 182.348 628.676 182.771 628.891C183.195 629.099 183.676 629.203 184.217 629.203C184.764 629.203 185.249 629.099 185.672 628.891C186.095 628.676 186.453 628.36 186.746 627.943C187.039 627.52 187.26 627.003 187.41 626.391C187.566 625.779 187.645 625.075 187.645 624.281ZM203.826 616.781V631H201.375L194.998 620.814V631H192.547V616.781H194.998L201.395 626.986V616.781H203.826ZM92.752 652.057V654H85.2031V652.057H92.752ZM85.8965 639.781V654H83.4453V639.781H85.8965ZM91.7656 645.719V647.633H85.2031V645.719H91.7656ZM92.7031 639.781V641.734H85.2031V639.781H92.7031ZM103.66 652.057V654H96.5215V652.057H103.66ZM97.2051 639.781V654H94.7539V639.781H97.2051ZM108.172 639.781V654H105.721V639.781H108.172ZM122.137 646.734V652.164C121.935 652.431 121.619 652.724 121.189 653.043C120.766 653.355 120.203 653.626 119.5 653.853C118.797 654.081 117.921 654.195 116.873 654.195C115.981 654.195 115.164 654.046 114.422 653.746C113.68 653.44 113.038 652.994 112.498 652.408C111.964 651.822 111.551 651.109 111.258 650.269C110.965 649.423 110.818 648.46 110.818 647.379V646.393C110.818 645.318 110.952 644.361 111.219 643.521C111.492 642.675 111.883 641.959 112.391 641.373C112.898 640.787 113.51 640.344 114.227 640.045C114.949 639.739 115.766 639.586 116.678 639.586C117.843 639.586 118.807 639.781 119.568 640.172C120.337 640.556 120.929 641.09 121.346 641.773C121.762 642.457 122.026 643.238 122.137 644.117H119.734C119.656 643.622 119.503 643.18 119.275 642.789C119.054 642.398 118.735 642.092 118.318 641.871C117.908 641.643 117.374 641.529 116.717 641.529C116.15 641.529 115.652 641.637 115.223 641.852C114.793 642.066 114.435 642.382 114.148 642.799C113.868 643.215 113.657 643.723 113.514 644.322C113.37 644.921 113.299 645.605 113.299 646.373V647.379C113.299 648.16 113.38 648.853 113.543 649.459C113.712 650.064 113.953 650.575 114.266 650.992C114.585 651.409 114.972 651.725 115.428 651.939C115.883 652.148 116.398 652.252 116.971 652.252C117.531 652.252 117.99 652.206 118.348 652.115C118.706 652.018 118.989 651.904 119.197 651.773C119.412 651.637 119.578 651.506 119.695 651.383V648.56H116.736V646.734H122.137ZM127.469 639.781V654H125.018V639.781H127.469ZM135.848 647.574H132.225L132.205 645.787H135.369C135.903 645.787 136.355 645.709 136.727 645.553C137.104 645.39 137.391 645.159 137.586 644.859C137.781 644.553 137.879 644.185 137.879 643.756C137.879 643.281 137.788 642.893 137.605 642.594C137.423 642.294 137.143 642.076 136.766 641.939C136.395 641.803 135.919 641.734 135.34 641.734H132.967V654H130.516V639.781H135.34C136.121 639.781 136.818 639.856 137.43 640.006C138.048 640.156 138.572 640.39 139.002 640.709C139.438 641.021 139.767 641.419 139.988 641.9C140.216 642.382 140.33 642.955 140.33 643.619C140.33 644.205 140.19 644.742 139.91 645.23C139.63 645.712 139.217 646.106 138.67 646.412C138.123 646.718 137.443 646.9 136.629 646.959L135.848 647.574ZM135.74 654H131.453L132.557 652.057H135.74C136.294 652.057 136.756 651.965 137.127 651.783C137.498 651.594 137.775 651.337 137.957 651.012C138.146 650.68 138.24 650.292 138.24 649.85C138.24 649.387 138.159 648.987 137.996 648.648C137.833 648.303 137.576 648.04 137.225 647.857C136.873 647.669 136.414 647.574 135.848 647.574H133.094L133.113 645.787H136.697L137.254 646.461C138.035 646.487 138.676 646.659 139.178 646.978C139.686 647.297 140.063 647.711 140.311 648.219C140.558 648.727 140.682 649.273 140.682 649.859C140.682 650.764 140.483 651.523 140.086 652.135C139.695 652.747 139.132 653.212 138.396 653.531C137.661 653.844 136.775 654 135.74 654ZM145.77 639.781V654H143.318V639.781H145.77ZM157.723 652.057V654H150.584V652.057H157.723ZM151.268 639.781V654H148.816V639.781H151.268ZM162.234 639.781V654H159.783V639.781H162.234ZM170.838 639.781V654H168.406V639.781H170.838ZM175.301 639.781V641.734H163.982V639.781H175.301ZM178.689 639.781L181.99 646.568L185.291 639.781H188.006L183.221 648.766V654H180.75V648.766L175.965 639.781H178.689Z" fill="#707070"/>
<g clip-path="url(#clip0_43_606)">
<path d="M55.4102 637.074C60.2426 637.074 64.1602 633.157 64.1602 628.324C64.1602 623.492 60.2426 619.574 55.4102 619.574C50.5777 619.574 46.6602 623.492 46.6602 628.324C46.6602 633.157 50.5777 637.074 55.4102 637.074Z" stroke="#707070" stroke-width="2" stroke-linecap="round" stroke-linejoin="round"/>
<path d="M50.6727 635.687L49.1602 647.074L55.4102 643.324L61.6602 647.074L60.1477 635.674" stroke="#707070" stroke-width="2" stroke-linecap="round" stroke-linejoin="round"/>
</g>
<path d="M90.9258 919.338C90.9258 919.045 90.8802 918.784 90.7891 918.557C90.7044 918.329 90.5514 918.12 90.3301 917.932C90.1087 917.743 89.7962 917.56 89.3926 917.385C88.9954 917.202 88.4876 917.017 87.8691 916.828C87.1921 916.62 86.5671 916.389 85.9941 916.135C85.4277 915.874 84.9329 915.575 84.5098 915.236C84.0866 914.891 83.7578 914.497 83.5234 914.055C83.2891 913.605 83.1719 913.088 83.1719 912.502C83.1719 911.922 83.2923 911.395 83.5332 910.92C83.7806 910.445 84.1289 910.034 84.5781 909.689C85.0339 909.338 85.571 909.068 86.1895 908.879C86.8079 908.684 87.4915 908.586 88.2402 908.586C89.2949 908.586 90.2031 908.781 90.9648 909.172C91.7331 909.562 92.3223 910.087 92.7324 910.744C93.1491 911.402 93.3574 912.128 93.3574 912.922H90.9258C90.9258 912.453 90.8249 912.04 90.623 911.682C90.4277 911.317 90.1283 911.031 89.7246 910.822C89.3275 910.614 88.8229 910.51 88.2109 910.51C87.6315 910.51 87.1497 910.598 86.7656 910.773C86.3815 910.949 86.0951 911.187 85.9062 911.486C85.7174 911.786 85.623 912.124 85.623 912.502C85.623 912.769 85.6849 913.013 85.8086 913.234C85.9323 913.449 86.1211 913.651 86.375 913.84C86.6289 914.022 86.9479 914.195 87.332 914.357C87.7161 914.52 88.1686 914.676 88.6895 914.826C89.4772 915.06 90.1641 915.321 90.75 915.607C91.3359 915.887 91.8242 916.206 92.2148 916.564C92.6055 916.922 92.8984 917.329 93.0938 917.785C93.2891 918.234 93.3867 918.745 93.3867 919.318C93.3867 919.917 93.2663 920.458 93.0254 920.939C92.7845 921.415 92.4395 921.822 91.9902 922.16C91.5475 922.492 91.0137 922.749 90.3887 922.932C89.7702 923.107 89.0801 923.195 88.3184 923.195C87.6348 923.195 86.9609 923.104 86.2969 922.922C85.6393 922.74 85.0404 922.463 84.5 922.092C83.9596 921.714 83.5299 921.245 83.2109 920.685C82.8919 920.119 82.7324 919.458 82.7324 918.703H85.1836C85.1836 919.165 85.2617 919.559 85.418 919.885C85.5807 920.21 85.8053 920.477 86.0918 920.685C86.3783 920.887 86.7103 921.037 87.0879 921.135C87.472 921.232 87.8822 921.281 88.3184 921.281C88.8913 921.281 89.3698 921.2 89.7539 921.037C90.1445 920.874 90.4375 920.646 90.6328 920.353C90.8281 920.06 90.9258 919.722 90.9258 919.338ZM104.861 921.057V923H97.3125V921.057H104.861ZM98.0059 908.781V923H95.5547V908.781H98.0059ZM103.875 914.719V916.633H97.3125V914.719H103.875ZM104.812 908.781V910.734H97.3125V908.781H104.812ZM112.908 908.781V923H110.477V908.781H112.908ZM117.371 908.781V910.734H106.053V908.781H117.371ZM125.252 908.781V923H122.82V908.781H125.252ZM129.715 908.781V910.734H118.396V908.781H129.715ZM134.207 908.781V923H131.756V908.781H134.207ZM148.533 908.781V923H146.082L139.705 912.814V923H137.254V908.781H139.705L146.102 918.986V908.781H148.533ZM162.371 915.734V921.164C162.169 921.431 161.854 921.724 161.424 922.043C161.001 922.355 160.438 922.626 159.734 922.853C159.031 923.081 158.156 923.195 157.107 923.195C156.215 923.195 155.398 923.046 154.656 922.746C153.914 922.44 153.273 921.994 152.732 921.408C152.199 920.822 151.785 920.109 151.492 919.269C151.199 918.423 151.053 917.46 151.053 916.379V915.393C151.053 914.318 151.186 913.361 151.453 912.521C151.727 911.675 152.117 910.959 152.625 910.373C153.133 909.787 153.745 909.344 154.461 909.045C155.184 908.739 156.001 908.586 156.912 908.586C158.077 908.586 159.041 908.781 159.803 909.172C160.571 909.556 161.163 910.09 161.58 910.773C161.997 911.457 162.26 912.238 162.371 913.117H159.969C159.891 912.622 159.738 912.18 159.51 911.789C159.288 911.398 158.969 911.092 158.553 910.871C158.143 910.643 157.609 910.529 156.951 910.529C156.385 910.529 155.887 910.637 155.457 910.852C155.027 911.066 154.669 911.382 154.383 911.799C154.103 912.215 153.891 912.723 153.748 913.322C153.605 913.921 153.533 914.605 153.533 915.373V916.379C153.533 917.16 153.615 917.853 153.777 918.459C153.947 919.064 154.188 919.575 154.5 919.992C154.819 920.409 155.206 920.725 155.662 920.939C156.118 921.148 156.632 921.252 157.205 921.252C157.765 921.252 158.224 921.206 158.582 921.115C158.94 921.018 159.223 920.904 159.432 920.773C159.646 920.637 159.812 920.506 159.93 920.383V917.56H156.971V915.734H162.371ZM172.566 919.338C172.566 919.045 172.521 918.784 172.43 918.557C172.345 918.329 172.192 918.12 171.971 917.932C171.749 917.743 171.437 917.56 171.033 917.385C170.636 917.202 170.128 917.017 169.51 916.828C168.833 916.62 168.208 916.389 167.635 916.135C167.068 915.874 166.574 915.575 166.15 915.236C165.727 914.891 165.398 914.497 165.164 914.055C164.93 913.605 164.812 913.088 164.812 912.502C164.812 911.922 164.933 911.395 165.174 910.92C165.421 910.445 165.77 910.034 166.219 909.689C166.674 909.338 167.212 909.068 167.83 908.879C168.449 908.684 169.132 908.586 169.881 908.586C170.936 908.586 171.844 908.781 172.605 909.172C173.374 909.562 173.963 910.087 174.373 910.744C174.79 911.402 174.998 912.128 174.998 912.922H172.566C172.566 912.453 172.465 912.04 172.264 911.682C172.068 911.317 171.769 911.031 171.365 910.822C170.968 910.614 170.464 910.51 169.852 910.51C169.272 910.51 168.79 910.598 168.406 910.773C168.022 910.949 167.736 911.187 167.547 911.486C167.358 911.786 167.264 912.124 167.264 912.502C167.264 912.769 167.326 913.013 167.449 913.234C167.573 913.449 167.762 913.651 168.016 913.84C168.27 914.022 168.589 914.195 168.973 914.357C169.357 914.52 169.809 914.676 170.33 914.826C171.118 915.06 171.805 915.321 172.391 915.607C172.977 915.887 173.465 916.206 173.855 916.564C174.246 916.922 174.539 917.329 174.734 917.785C174.93 918.234 175.027 918.745 175.027 919.318C175.027 919.917 174.907 920.458 174.666 920.939C174.425 921.415 174.08 921.822 173.631 922.16C173.188 922.492 172.654 922.749 172.029 922.932C171.411 923.107 170.721 923.195 169.959 923.195C169.275 923.195 168.602 923.104 167.938 922.922C167.28 922.74 166.681 922.463 166.141 922.092C165.6 921.714 165.171 921.245 164.852 920.685C164.533 920.119 164.373 919.458 164.373 918.703H166.824C166.824 919.165 166.902 919.559 167.059 919.885C167.221 920.21 167.446 920.477 167.732 920.685C168.019 920.887 168.351 921.037 168.729 921.135C169.113 921.232 169.523 921.281 169.959 921.281C170.532 921.281 171.01 921.2 171.395 921.037C171.785 920.874 172.078 920.646 172.273 920.353C172.469 920.06 172.566 919.722 172.566 919.338Z" fill="#707070"/>
<g clip-path="url(#clip1_43_606)">
<path d="M52.4102 916.324C54.067 916.324 55.4102 914.981 55.4102 913.324C55.4102 911.667 54.067 910.324 52.4102 910.324C50.7533 910.324 49.4102 911.667 49.4102 913.324C49.4102 914.981 50.7533 916.324 52.4102 916.324Z" stroke="#707070" stroke-width="2" stroke-linecap="round" stroke-linejoin="round"/>
<path d="M59.8102 916.324C59.677 916.626 59.6373 916.96 59.6962 917.285C59.755 917.609 59.9096 917.908 60.1402 918.144L60.2002 918.204C60.3861 918.39 60.5336 918.61 60.6343 918.853C60.7349 919.096 60.7867 919.356 60.7867 919.619C60.7867 919.882 60.7349 920.142 60.6343 920.385C60.5336 920.628 60.3861 920.848 60.2002 921.034C60.0144 921.22 59.7938 921.368 59.551 921.468C59.3082 921.569 59.048 921.621 58.7852 921.621C58.5223 921.621 58.2621 921.569 58.0193 921.468C57.7765 921.368 57.5559 921.22 57.3702 921.034L57.3102 920.974C57.0745 920.744 56.7751 920.589 56.4507 920.53C56.1263 920.471 55.7918 920.511 55.4902 920.644C55.1944 920.771 54.9421 920.981 54.7645 921.25C54.5868 921.518 54.4914 921.832 54.4902 922.154V922.324C54.4902 922.855 54.2794 923.363 53.9044 923.738C53.5293 924.113 53.0206 924.324 52.4902 924.324C51.9597 924.324 51.451 924.113 51.0759 923.738C50.7009 923.363 50.4902 922.855 50.4902 922.324V922.234C50.4824 921.903 50.3753 921.582 50.1827 921.313C49.9901 921.044 49.7209 920.838 49.4102 920.724C49.1085 920.591 48.774 920.551 48.4496 920.61C48.1252 920.669 47.8258 920.824 47.5902 921.054L47.5302 921.114C47.3444 921.3 47.1238 921.448 46.881 921.548C46.6382 921.649 46.378 921.701 46.1152 921.701C45.8523 921.701 45.5921 921.649 45.3493 921.548C45.1065 921.448 44.8859 921.3 44.7002 921.114C44.5142 920.928 44.3667 920.708 44.266 920.465C44.1654 920.222 44.1136 919.962 44.1136 919.699C44.1136 919.436 44.1654 919.176 44.266 918.933C44.3667 918.69 44.5142 918.47 44.7002 918.284L44.7602 918.224C44.9907 917.988 45.1453 917.689 45.2042 917.365C45.263 917.04 45.2233 916.706 45.0902 916.404C44.9634 916.108 44.7529 915.856 44.4846 915.678C44.2163 915.501 43.9019 915.405 43.5802 915.404H43.4102C42.8797 915.404 42.371 915.193 41.9959 914.818C41.6209 914.443 41.4102 913.935 41.4102 913.404C41.4102 912.874 41.6209 912.365 41.9959 911.99C42.371 911.615 42.8797 911.404 43.4102 911.404H43.5002C43.8312 911.396 44.1522 911.289 44.4215 911.097C44.6907 910.904 44.8959 910.635 45.0102 910.324C45.1433 910.022 45.183 909.688 45.1242 909.364C45.0653 909.039 44.9107 908.74 44.6802 908.504L44.6202 908.444C44.4342 908.258 44.2867 908.038 44.186 907.795C44.0854 907.552 44.0336 907.292 44.0336 907.029C44.0336 906.766 44.0854 906.506 44.186 906.263C44.2867 906.02 44.4342 905.8 44.6202 905.614C44.8059 905.428 45.0265 905.281 45.2693 905.18C45.5121 905.079 45.7723 905.028 46.0352 905.028C46.298 905.028 46.5582 905.079 46.801 905.18C47.0438 905.281 47.2644 905.428 47.4502 905.614L47.5102 905.674C47.7458 905.905 48.0452 906.059 48.3696 906.118C48.694 906.177 49.0285 906.137 49.3302 906.004H49.4102C49.7059 905.877 49.9582 905.667 50.1358 905.399C50.3135 905.13 50.4089 904.816 50.4102 904.494V904.324C50.4102 903.794 50.6209 903.285 50.9959 902.91C51.371 902.535 51.8797 902.324 52.4102 902.324C52.9406 902.324 53.4493 902.535 53.8244 902.91C54.1994 903.285 54.4102 903.794 54.4102 904.324V904.414C54.4114 904.736 54.5068 905.05 54.6845 905.319C54.8621 905.587 55.1144 905.797 55.4102 905.924C55.7118 906.057 56.0463 906.097 56.3707 906.038C56.6951 905.979 56.9945 905.825 57.2302 905.594L57.2902 905.534C57.4759 905.348 57.6965 905.201 57.9393 905.1C58.1821 904.999 58.4423 904.948 58.7052 904.948C58.968 904.948 59.2282 904.999 59.471 905.1C59.7138 905.201 59.9344 905.348 60.1202 905.534C60.3061 905.72 60.4536 905.94 60.5543 906.183C60.6549 906.426 60.7067 906.686 60.7067 906.949C60.7067 907.212 60.6549 907.472 60.5543 907.715C60.4536 907.958 60.3061 908.178 60.1202 908.364L60.0602 908.424C59.8296 908.66 59.675 908.959 59.6162 909.284C59.5573 909.608 59.597 909.942 59.7302 910.244V910.324C59.8569 910.62 60.0674 910.872 60.3357 911.05C60.604 911.227 60.9184 911.323 61.2402 911.324H61.4102C61.9406 911.324 62.4493 911.535 62.8244 911.91C63.1994 912.285 63.4102 912.794 63.4102 913.324C63.4102 913.855 63.1994 914.363 62.8244 914.738C62.4493 915.113 61.9406 915.324 61.4102 915.324H61.3202C60.9984 915.325 60.684 915.421 60.4157 915.598C60.1474 915.776 59.9369 916.028 59.8102 916.324Z" stroke="#707070" stroke-width="2" stroke-linecap="round" stroke-linejoin="round"/>
</g>
<path d="M92.8398 858.719V860.662H85.291V858.719H92.8398ZM85.8965 852.781V867H83.4453V852.781H85.8965ZM94.7246 852.781V867H92.2832V852.781H94.7246ZM106.951 865.057V867H99.4023V865.057H106.951ZM100.096 852.781V867H97.6445V852.781H100.096ZM105.965 858.719V860.633H99.4023V858.719H105.965ZM106.902 852.781V854.734H99.4023V852.781H106.902ZM117.859 865.057V867H110.721V865.057H117.859ZM111.404 852.781V867H108.953V852.781H111.404ZM125.154 861.697H121.453V859.754H125.154C125.799 859.754 126.32 859.65 126.717 859.441C127.114 859.233 127.404 858.946 127.586 858.582C127.775 858.211 127.869 857.788 127.869 857.312C127.869 856.863 127.775 856.443 127.586 856.053C127.404 855.655 127.114 855.336 126.717 855.096C126.32 854.855 125.799 854.734 125.154 854.734H122.205V867H119.754V852.781H125.154C126.255 852.781 127.189 852.976 127.957 853.367C128.732 853.751 129.321 854.285 129.725 854.969C130.128 855.646 130.33 856.42 130.33 857.293C130.33 858.211 130.128 858.999 129.725 859.656C129.321 860.314 128.732 860.818 127.957 861.17C127.189 861.521 126.255 861.697 125.154 861.697Z" fill="#707070"/>
<path d="M55.4102 871.035C62.3137 871.035 67.9102 865.439 67.9102 858.535C67.9102 851.632 62.3137 846.035 55.4102 846.035C48.5066 846.035 42.9102 851.632 42.9102 858.535C42.9102 865.439 48.5066 871.035 55.4102 871.035Z" stroke="#707070" stroke-width="2" stroke-linecap="round" stroke-linejoin="round"/>
<path d="M51.7725 854.785C52.0663 853.95 52.6464 853.245 53.4099 852.797C54.1734 852.348 55.0711 852.184 55.9439 852.334C56.8168 852.483 57.6085 852.937 58.1788 853.615C58.7491 854.292 59.0613 855.15 59.06 856.035C59.06 858.535 55.31 859.785 55.31 859.785" stroke="#707070" stroke-width="2" stroke-linecap="round" stroke-linejoin="round"/>
<path d="M55.4102 864.785H55.4227" stroke="#707070" stroke-width="2" stroke-linecap="round" stroke-linejoin="round"/>
<path d="M272 0V1024H274V0H272Z" fill="#DFDDDD" mask="url(#path-1-inside-1_43_606)"/>
<defs>
<clipPath id="clip0_43_606">
<rect width="30" height="30" fill="white" transform="translate(40.4102 618.324)"/>
</clipPath>
<clipPath id="clip1_43_606">
<rect width="24" height="24" fill="white" transform="translate(40.4102 901.324)"/>
</clipPath>
</defs>
</svg>
